<svg width="20" height="10" viewBox="0 0 20 10" fill="none" xmlns="http://www.w3.org/2000/svg">
<path fill-rule="evenodd" clip-rule="evenodd" d="M1.33856 0.0672598C1.43919 0.0241789 1.54731 0.00134341 1.65676 5.75119e-05C1.76621 -0.00122839 1.87484 0.0190606 1.97645 0.0597655C2.07806 0.10047 2.17065 0.160794 2.24894 0.23729C2.32723 0.313786 2.38968 0.404956 2.43273 0.505593L1.6669 0.833926L2.43357 0.505593L2.43606 0.51226L2.45356 0.54976L2.5319 0.711427C2.60356 0.85476 2.7144 1.06476 2.86523 1.31893C3.26295 1.98707 3.72937 2.61185 4.2569 3.18309C4.41501 3.3532 4.579 3.51774 4.74856 3.67643C5.98356 4.83393 7.7094 5.83393 10.0002 5.83393C10.9184 5.83812 11.829 5.66788 12.6836 5.33226C13.7061 4.92976 14.5619 4.32393 15.2636 3.66726C16.202 2.77682 16.9733 1.7255 17.5411 0.563093L17.5636 0.51476L17.5677 0.505593C17.6569 0.305601 17.8211 0.148725 18.025 0.0688834C18.2289 -0.0109581 18.456 -0.00734994 18.6573 0.078928C18.8585 0.165206 19.0177 0.327221 19.1004 0.529944C19.1832 0.732667 19.1828 0.959809 19.0994 1.16226L19.0977 1.16643L19.0944 1.17309L19.0852 1.19476L19.0519 1.26726C18.8668 1.65274 18.6607 2.02775 18.4344 2.39059C18.0179 3.05971 17.5406 3.68904 17.0086 4.27059L17.6727 4.93476C17.8291 5.09102 17.917 5.30299 17.9171 5.52405C17.9171 5.74511 17.8294 5.95714 17.6731 6.11351C17.5169 6.26988 17.3049 6.35777 17.0839 6.35784C16.8628 6.35792 16.6508 6.27018 16.4944 6.11393L15.7944 5.41393C15.3018 5.81209 14.7725 6.16256 14.2136 6.46059L14.8652 7.46226C14.9267 7.55395 14.9694 7.65693 14.9907 7.76524C15.012 7.87355 15.0117 7.98502 14.9896 8.09317C14.9675 8.20133 14.9241 8.30402 14.862 8.39527C14.7999 8.48653 14.7202 8.56454 14.6277 8.62476C14.5352 8.68498 14.4316 8.72622 14.3231 8.74609C14.2145 8.76595 14.103 8.76405 13.9952 8.74048C13.8873 8.71691 13.7852 8.67215 13.6948 8.60879C13.6044 8.54544 13.5275 8.46475 13.4686 8.37143L12.6469 7.10976C12.0811 7.28309 11.4769 7.40559 10.8336 7.46309V8.75059C10.8336 8.97161 10.7458 9.18357 10.5895 9.33985C10.4332 9.49613 10.2212 9.58393 10.0002 9.58393C9.77922 9.58393 9.56726 9.49613 9.41098 9.33985C9.25469 9.18357 9.1669 8.97161 9.1669 8.75059V7.46393C8.52106 7.40559 7.9169 7.28309 7.35273 7.10976L6.5319 8.37143C6.40865 8.55017 6.22051 8.67375 6.00753 8.71587C5.79454 8.75799 5.57352 8.71533 5.39152 8.59696C5.20951 8.47859 5.08089 8.29386 5.03302 8.08209C4.98515 7.87032 5.02183 7.64823 5.13523 7.46309L5.7869 6.46059C5.20356 6.15226 4.6769 5.79393 4.20606 5.41309L3.50606 6.11309C3.3489 6.26489 3.13839 6.34889 2.9199 6.34699C2.7014 6.34509 2.49239 6.25745 2.33788 6.10294C2.18338 5.94843 2.09574 5.73942 2.09384 5.52093C2.09194 5.30243 2.17593 5.09193 2.32773 4.93476L2.9919 4.27059C2.40235 3.62574 1.8802 2.92237 1.43356 2.17143C1.25569 1.87144 1.09136 1.56363 0.941065 1.24893L0.913565 1.18893L0.905232 1.17143L0.903565 1.16559L0.902732 1.16393C0.900232 1.16393 0.900232 1.16226 1.6669 0.833926L0.901065 1.16309C0.85783 1.06248 0.834852 0.954324 0.833443 0.84482C0.832034 0.735316 0.852223 0.626609 0.892855 0.524913C0.933487 0.423217 0.993765 0.330527 1.07024 0.252142C1.14672 0.173758 1.2379 0.110383 1.33856 0.0672598Z" fill="#CBD5E1"/>
</svg>
