<svg width="89" height="42" viewBox="0 0 89 42" fill="none" xmlns="http://www.w3.org/2000/svg">
<path fill-rule="evenodd" clip-rule="evenodd" d="M36.5835 0.547415C25.1515 2.62945 12.2042 9.68491 3.20341 18.7374L0 21.9593L5.61798 22.2024C8.70786 22.3365 14.8338 22.4678 19.2313 22.4947L27.227 22.5438L27.4777 24.2264C28.0523 28.0799 31.2654 32.9329 34.8613 35.3785C44.7036 42.0728 58.217 36.8535 61.4204 25.1203L62.0469 22.8259L71.117 22.9046C76.1054 22.9483 80.2762 23.0738 80.3855 23.1833C80.9938 23.795 71.0961 30.5329 65.8659 33.0674C57.5029 37.12 50.654 38.6892 41.2631 38.7048C34.4037 38.7161 31.0163 38.2087 25.3778 36.3262C22.2821 35.2928 15.8001 32.2452 13.0763 30.5431C10.0585 28.657 11.3801 29.8642 14.9954 32.2966C22.0806 37.0631 29.7745 40.2409 37.1957 41.4653C43.0907 42.4379 50.611 42.0619 56.1798 40.5152C67.5103 37.369 77.0484 31.7865 85.7633 23.202L89 20.0132L87.5068 19.7709C86.6854 19.6376 79.8028 19.4229 72.2123 19.2939L58.4111 19.0593L58.2274 21.9406C57.9868 25.7095 56.6567 28.4735 53.8365 31.0656C51.0988 33.5825 48.3832 34.6237 44.5564 34.6237C40.7606 34.6237 38.0105 33.5794 35.3382 31.1229C33.2914 29.2415 31.5316 26.2687 31.0093 23.8102L30.7404 22.5438H34.8582H38.9764L49.5153 18.1927C55.3115 15.7993 60.1337 13.7757 60.2309 13.6958C60.6211 13.3747 58.7757 10.5788 56.8857 8.62694C54.2681 5.92415 50.2526 3.96993 46.2894 3.47076C43.8163 3.15902 44.27 3.12512 49.3995 3.23656C54.5641 3.34918 56.0287 3.53155 59.8605 4.53925C64.9706 5.88246 69.6234 7.77121 73.9942 10.2764C75.6683 11.2362 77.0934 11.9661 77.1608 11.8983C77.408 11.6496 70.031 6.99264 66.8931 5.4168C62.6668 3.29385 56.6982 1.32871 52.1403 0.559105C47.7513 -0.181668 40.6164 -0.187123 36.5835 0.547415ZM36.8074 4.19711C27.4955 6.20472 19.241 10.1658 10.8485 16.6546L8.52383 18.4522L12.7857 18.695C15.1298 18.8282 21.8423 18.9475 27.7024 18.9596L38.3572 18.9818L46.4936 15.5803C51.6494 13.4246 54.63 11.977 54.63 11.6278C54.63 10.7904 50.8737 8.33117 48.3979 7.54793C45.5138 6.6357 41.6614 6.92757 38.7214 8.2813C35.976 9.5454 33.0775 12.5506 31.9388 15.3134L31.0469 17.478H29.3262H27.6056L27.8539 16.2116C28.8683 11.0379 33.9213 5.92221 39.8934 4.02371C42.1155 3.31723 40.456 3.41075 36.8074 4.19711Z" fill="#2563EB"/>
</svg>
